<svg xmlns="http://www.w3.org/2000/svg" viewBox="0 0 124.99 124.99"><defs><style>.b0c83031-1306-428a-8575-afb37c7a4376{fill:#c4c200;}.b6db9540-e772-43d4-a68f-2f6769153bd6{fill:#fff;}</style></defs><title>iso_solanas300</title><g id="b62968b2-0f55-4a9d-9f90-feabbd7eb041" data-name="Capa 2"><g id="ac43cd13-dcc8-4e97-8739-b367515382ce" data-name="Capa 1"><circle class="b0c83031-1306-428a-8575-afb37c7a4376" cx="62.5" cy="62.5" r="62.5"/><path class="b6db9540-e772-43d4-a68f-2f6769153bd6" d="M34.8,77.52a16.45,16.45,0,0,0,2.55,8.89,21.87,21.87,0,0,0,7.2,7.49q6.33,4,16.28,4.35A34.46,34.46,0,0,0,75.29,96a20.88,20.88,0,0,0,9.47-7.29A19.79,19.79,0,0,0,88.3,77.88a18.52,18.52,0,0,0-1.51-8.66,16,16,0,0,0-4.83-6,31.63,31.63,0,0,0-7.71-4.19,101.27,101.27,0,0,0-10.19-3.3q-4.5-1.3-6.45-2A20.14,20.14,0,0,1,53.77,52a9.35,9.35,0,0,1-2.94-2.63,5.71,5.71,0,0,1-1-3.53,6.73,6.73,0,0,1,3.43-5.45,14.26,14.26,0,0,1,8.59-2c3.8.13,6.52.94,8.18,2.42a17.46,17.46,0,0,1,4.19,6.1,16,16,0,0,0,2.5,3.93,5,5,0,0,0,3.52,1.3,5.51,5.51,0,0,0,4.36-1.8A6.43,6.43,0,0,0,86.5,46a12.27,12.27,0,0,0-1.18-5.51A17.24,17.24,0,0,0,81.16,35a23,23,0,0,0-7.36-4.35,33.43,33.43,0,0,0-10.65-1.92,36,36,0,0,0-13.57,1.83,19.06,19.06,0,0,0-9,6.32,16.72,16.72,0,0,0-3.38,9.75,16.06,16.06,0,0,0,2.52,9.85,19.53,19.53,0,0,0,7.53,6.47,62.89,62.89,0,0,0,12,4.4c3.57,1,6.43,1.84,8.56,2.65A13.15,13.15,0,0,1,73,73.36a7.45,7.45,0,0,1,1.84,5.51,8.48,8.48,0,0,1-4,6.9,16,16,0,0,1-9.94,2.47,15.54,15.54,0,0,1-7.06-1.65,11.3,11.3,0,0,1-4.07-3.71,26.65,26.65,0,0,1-2.58-5.47,10.81,10.81,0,0,0-2.4-4.17,5.19,5.19,0,0,0-3.6-1.51,6,6,0,0,0-6.32,5.79Z"/></g></g></svg>